<svg xmlns="http://www.w3.org/2000/svg" width="155.905" height="51.676"><g fill="#313131"><path d="M5.324 0c3.732 0 5.92 2.458 5.92 5.711v5.805c0 3.24-2.188 5.695-5.92 5.695H0V0h5.324zM2.94 14.432h2.384c1.896 0 2.966-1.21 2.966-2.902V5.71c0-1.718-1.073-2.93-2.966-2.93H2.94v11.652zM32.329 0l-3.888 17.211H25.27L22.214 5.695l-3.027 11.517h-3.183L12.055 0h3.115l2.593 11.937L20.769 0h2.908l3.038 11.839L29.252 0h3.077zM36.891 0v17.211h-2.954V0h2.954z"/></g><g fill="#313131"><path d="M17.327 33.365h4.044v.984H16.29V24.023h1.037v9.342zM27.544 31.844v.144c0 1.458-1 2.538-2.684 2.538-1.686 0-2.688-1.158-2.688-2.724v-2.645c0-1.59.993-2.724 2.663-2.724 1.681 0 2.659 1.135 2.659 2.707v1.582h-4.348v1.051c0 1.062.608 1.819 1.714 1.819 1.104 0 1.709-.68 1.709-1.62v-.129h.975zm-4.398-2.657v.645h3.373v-.662c0-1.067-.584-1.804-1.685-1.804-1.089.001-1.688.737-1.688 1.821zM30.377 25.082H29.24v-1.261h1.137v1.261zm-.081 9.267h-.975v-7.738h.975v7.738zM37.845 29.158v2.645c0 1.583-.974 2.724-2.505 2.724-.863 0-1.479-.378-1.844-.992v.815h-.902V23.747h.975v3.479c.372-.495.951-.791 1.771-.791 1.531-.001 2.505 1.141 2.505 2.723zm-.974.029c0-1.084-.595-1.82-1.651-1.82s-1.651.733-1.651 1.762v2.703c0 1.025.595 1.762 1.651 1.762s1.651-.734 1.651-1.819v-2.588zM44.747 29.019v5.33h-.975v-5.193c0-1.119-.555-1.789-1.595-1.789-1.004 0-1.585.678-1.585 1.789v5.193h-.975v-7.738h.902v.824c.365-.628.981-1.001 1.836-1.001 1.493 0 2.392 1.077 2.392 2.585zM47.771 25.082h-1.137v-1.261h1.137v1.261zm-.081 9.267h-.975v-7.738h.975v7.738zM54.235 33.461v.888h-4.854v-.833l3.656-6.019h-3.558v-.887h4.725v.833l-3.661 6.018h3.692zM58.467 29.229v.933h-3.075v-.933h3.075zM61.525 24.023v10.326h-1.036V24.023h1.036zM66.688 26.434c1.491 0 2.391 1.077 2.391 2.585v5.33h-.975v-5.193c0-1.119-.555-1.789-1.595-1.789-1.004 0-1.585.678-1.585 1.789v5.193h-.974v-7.738h.901v.824c.367-.628.983-1.001 1.837-1.001zM74.773 28.945c0-.99-.541-1.578-1.545-1.578-.965 0-1.428.618-1.428 1.174 0 .758.556 1.057 1.303 1.304l.655.212c1.148.371 2.105.901 2.105 2.22 0 1.249-.991 2.25-2.563 2.25-1.566 0-2.617-1.078-2.617-2.385v-.286h.975v.166c0 1.011.75 1.572 1.643 1.572.955 0 1.589-.521 1.589-1.287 0-.744-.559-1.061-1.415-1.332l-.666-.212c-1.014-.334-1.979-.802-1.982-2.183-.005-1.15.945-2.146 2.402-2.146 1.377 0 2.52.859 2.52 2.526v.131h-.975v-.146zM79.171 27.502v4.903c0 .616.384 1.011.971 1.011h.554v.933h-.718c-1.053 0-1.781-.734-1.781-1.759v-5.088H77.07v-.892h1.127v-2.369h.975v2.369h1.546v.892h-1.547zM83.741 25.082h-1.138v-1.261h1.138v1.261zm-.082 9.267h-.974v-7.738h.974v7.738zM87.636 27.502v4.903c0 .616.384 1.011.971 1.011h.555v.933h-.719c-1.053 0-1.781-.734-1.781-1.759v-5.088h-1.127v-.892h1.127v-2.369h.975v2.369h1.546v.892h-1.547zM95.868 26.611v7.738h-.901v-.827c-.364.629-.98 1.004-1.84 1.004-1.491 0-2.391-1.076-2.391-2.58v-5.335h.975v5.198c0 1.119.555 1.784 1.595 1.784.994 0 1.589-.674 1.589-1.784v-5.198h.973zM99.577 27.502v4.903c0 .616.385 1.011.971 1.011h.556v.933h-.719c-1.054 0-1.781-.734-1.781-1.759v-5.088h-1.127v-.892h1.127v-2.369h.974v2.369h1.547v.892h-1.548zM107.527 25.525v1.086h1.598v.892h-1.598v6.847h-.974v-6.847h-1.096v-.892h1.096v-1.208c0-.993.696-1.697 1.709-1.697h.862v.892h-.689c-.554-.001-.908.301-.908.927zM115.697 26.611v7.738h-.901v-.827c-.363.629-.98 1.004-1.84 1.004-1.491 0-2.391-1.076-2.391-2.58v-5.335h.975v5.198c0 1.119.556 1.784 1.595 1.784.994 0 1.589-.674 1.589-1.784v-5.198h.973zm-3.268-1.365h-1.186v-1.199h1.186v1.199zm2.59 0h-1.186v-1.199h1.186v1.199zM120.886 26.434v1.047h-.405c-1.083 0-1.792.744-1.792 2.051v4.817h-.975v-7.738h.902v.988c.384-.726 1.055-1.165 2-1.165h.27z"/></g><g fill="#313131"><path d="M18.075 41.161v10.326h-1.772V41.161h1.772zM25.803 45.937v5.55h-1.629v-5.189c0-.805-.389-1.335-1.178-1.335-.742 0-1.171.522-1.171 1.335v5.189h-1.628v-7.882h1.486v.684c.362-.541.926-.873 1.706-.873 1.562 0 2.414 1.134 2.414 2.521zM29.822 45.078v4.117c0 .488.299.729.718.729h.704v1.562h-1.003c-1.184 0-2.048-.817-2.048-1.948v-4.461h-1.04v-1.473h1.04V41.35h1.629v2.255h1.468v1.473h-1.468zM38.702 48.879v.082c0 1.539-1.081 2.715-2.9 2.715-1.812 0-2.892-1.232-2.892-2.851v-2.56c0-1.608 1.065-2.851 2.854-2.851 1.819 0 2.879 1.242 2.879 2.854v1.805h-4.105v.723c0 .763.441 1.333 1.264 1.333.813 0 1.279-.514 1.279-1.19v-.06h1.621zm-4.164-2.584v.347h2.477v-.344c0-.756-.429-1.336-1.25-1.336-.799 0-1.227.58-1.227 1.333zM44.138 43.416v1.723h-.486c-.944 0-1.582.589-1.582 1.652v4.696h-1.63v-7.882h1.486v.895c.39-.669 1.027-1.084 1.939-1.084h.273zM50.594 46.269v5.218H49.17v-.559c-.385.438-.957.748-1.752.748-1.613 0-2.505-1.079-2.505-2.464 0-1.386.942-2.464 2.637-2.464.585 0 1.051.169 1.409.434v-.892c0-.8-.388-1.328-1.105-1.328-.664 0-1.104.427-1.104 1.124v.133h-1.63v-.146c0-1.551 1.081-2.658 2.733-2.658 1.716.001 2.741 1.243 2.741 2.854zm-1.569 2.943c0-.605-.4-1.135-1.221-1.135-.785 0-1.242.529-1.242 1.135 0 .604.457 1.127 1.242 1.127.821 0 1.221-.522 1.221-1.127zM54.896 48.086l-.724.964v2.437h-1.628V40.884h1.628v5.934l2.307-3.213h1.913l-2.394 3.339 2.551 4.543h-1.856l-1.797-3.401zM61.762 45.078v4.117c0 .488.3.729.719.729h.704v1.562h-1.003c-1.185 0-2.049-.817-2.049-1.948v-4.461h-1.038v-1.473h1.038V41.35h1.629v2.255h1.468v1.473h-1.468zM66.994 42.55H65.27v-1.714h1.725v1.714zm-.052 8.937h-1.629v-7.882h1.629v7.882zM75.002 43.605l-2.459 7.882H70.9l-2.444-7.882h1.732l1.551 5.519 1.545-5.519h1.718zM81.928 48.879v.082c0 1.539-1.081 2.715-2.9 2.715-1.812 0-2.892-1.232-2.892-2.851v-2.56c0-1.608 1.065-2.851 2.854-2.851 1.819 0 2.88 1.242 2.88 2.854v1.805h-4.106v.723c0 .763.442 1.333 1.264 1.333.813 0 1.279-.514 1.279-1.19v-.06h1.621zm-4.164-2.584v.347h2.477v-.344c0-.756-.428-1.336-1.25-1.336-.8 0-1.227.58-1.227 1.333zM96.26 41.161v10.326h-1.772v-6.668l-2.372 3.368h-.376l-2.364-3.357v6.657h-1.772V41.161h1.213l3.112 4.583 3.128-4.583h1.203zM103.609 46.269v5.218h-1.424v-.559c-.384.438-.958.748-1.752.748-1.613 0-2.505-1.079-2.505-2.464 0-1.386.942-2.464 2.637-2.464.585 0 1.051.169 1.41.434v-.892c0-.8-.389-1.328-1.106-1.328-.665 0-1.105.427-1.105 1.124v.133h-1.628v-.146c0-1.551 1.081-2.658 2.733-2.658 1.716.001 2.74 1.243 2.74 2.854zm-1.569 2.943c0-.605-.399-1.135-1.219-1.135-.786 0-1.243.529-1.243 1.135 0 .604.457 1.127 1.243 1.127.82 0 1.219-.522 1.219-1.127zM107.663 45.078v4.117c0 .488.299.729.718.729h.704v1.562h-1.002c-1.185 0-2.05-.817-2.05-1.948v-4.461h-1.038v-1.473h1.038V41.35h1.63v2.255h1.467v1.473h-1.467zM116.436 48.879v.082c0 1.539-1.082 2.715-2.9 2.715-1.812 0-2.893-1.232-2.893-2.851v-2.56c0-1.608 1.066-2.851 2.855-2.851 1.818 0 2.878 1.242 2.878 2.854v1.805h-4.104v.723c0 .763.441 1.333 1.264 1.333.813 0 1.279-.514 1.279-1.19v-.06h1.621zm-4.165-2.584v.347h2.477v-.344c0-.756-.429-1.336-1.25-1.336-.8 0-1.227.58-1.227 1.333zM121.871 43.416v1.723h-.486c-.944 0-1.583.589-1.583 1.652v4.696h-1.628v-7.882h1.486v.895c.39-.669 1.027-1.084 1.939-1.084h.272zM125.25 42.55h-1.725v-1.714h1.725v1.714zm-.052 8.937h-1.629v-7.882h1.629v7.882zM132.646 46.269v5.218h-1.424v-.559c-.385.438-.957.748-1.752.748-1.614 0-2.505-1.079-2.505-2.464 0-1.386.942-2.464 2.636-2.464.586 0 1.051.169 1.41.434v-.892c0-.8-.388-1.328-1.105-1.328-.664 0-1.104.427-1.104 1.124v.133h-1.629v-.146c0-1.551 1.081-2.658 2.733-2.658 1.716.001 2.74 1.243 2.74 2.854zm-1.568 2.943c0-.605-.4-1.135-1.221-1.135-.786 0-1.242.529-1.242 1.135 0 .604.456 1.127 1.242 1.127.821 0 1.221-.522 1.221-1.127zM136.324 40.884v10.603h-1.629V40.884h1.629zM140.651 42.55h-1.724v-1.714h1.724v1.714zm-.051 8.937h-1.629v-7.882h1.629v7.882zM148.561 48.879v.082c0 1.539-1.081 2.715-2.899 2.715-1.812 0-2.893-1.232-2.893-2.851v-2.56c0-1.608 1.065-2.851 2.854-2.851 1.82 0 2.88 1.242 2.88 2.854v1.805h-4.105v.723c0 .763.441 1.333 1.264 1.333.813 0 1.279-.514 1.279-1.19v-.06h1.62zm-4.164-2.584v.347h2.477v-.344c0-.756-.429-1.336-1.251-1.336-.798 0-1.226.58-1.226 1.333zM155.905 45.937v5.55h-1.629v-5.189c0-.805-.389-1.335-1.178-1.335-.742 0-1.17.522-1.17 1.335v5.189h-1.63v-7.882h1.487v.684c.363-.541.925-.873 1.706-.873 1.562 0 2.414 1.134 2.414 2.521z"/></g></svg>