<svg id="Layer_1" data-name="Layer 1" xmlns="http://www.w3.org/2000/svg" width="51" height="121" viewBox="0 0 51 121"><defs><style>.cls-1{fill:#4b5458;}.cls-2{fill:#000;}</style></defs><title>infosys foundation</title><path class="cls-1" d="M31.39,110.1c0,.16.22.14.36.15V110C31.62,110,31.39,110,31.39,110.1Z"/><path class="cls-2" d="M25.5,50.32A25,25,0,1,0,4.84,11.26a7.55,7.55,0,0,0-1,1.63A25,25,0,0,0,25.5,50.32ZM4,17.91c.2.7.4,1.39.5,1.68a21.78,21.78,0,0,0,2.27,3.69,43.85,43.85,0,0,0,3.71,3.55s-.1,1.19-.1,2,.39.83.71,1.09,1.4.11,1.4.11,1.07-.89,1.36-1.16.48-.21.48-.21a.86.86,0,0,1,.41.74,11.9,11.9,0,0,1-.85.92,3.29,3.29,0,0,0-.67,1.22c-.14,1.14,1.13,1.14,1.39,1.09a6.44,6.44,0,0,0,2-1.22,3.64,3.64,0,0,0,1.47-1.86,3,3,0,0,0-.2-1.49c0-.32.09-.37.09-.37s0,.09.33.51A3.44,3.44,0,0,1,18.5,30a17,17,0,0,1-1.24,1.69c-.11.09-.61,1.55.08,1.88s1.47-.35,1.47-.35A24.09,24.09,0,0,0,21.26,31c.47-.65.28-2.25.28-2.86a13.07,13.07,0,0,0-1.09-2.73c-.05-.17.21-.15.21-.15a18.46,18.46,0,0,1,1.47,2.22,3.69,3.69,0,0,1,.3,2.87c-.11.57-.48,2-.48,2,0,1.4.49,1.73,1,1.64s1-.63,1.68-1.7a6.71,6.71,0,0,0,.74-3.32,14.59,14.59,0,0,0-.26-3.32,13.8,13.8,0,0,0-1.86-3.34,21.33,21.33,0,0,1-1.66-3,.16.16,0,0,1,.29-.1,8.6,8.6,0,0,0,2,2,3.88,3.88,0,0,0,3.28,0,1.21,1.21,0,0,0,.65-1.67c-.26-.45-1.62-.72-1.88-1.06a15.29,15.29,0,0,0-1.86-2,19.74,19.74,0,0,0-3-1.68c-.85-.37-1.69-1-3.06-1.55a13.67,13.67,0,0,1-3.1-2.3c-.7-1.18-2.73-2-3.68-2.51-.19-.1-.37-.17-.54-.24A22.5,22.5,0,0,1,40.55,41.82l0-.12s-.57-1.21-.81-1.78-1.34-3-1.54-3.26a16.86,16.86,0,0,1-.78-2.33,12.2,12.2,0,0,0-1.69-2.58V28.56a.34.34,0,0,0-.2-.23c-.18-.13-1.1,0-1.1,0a1.41,1.41,0,0,0-.78,1.39l0,2.23s-5.16-4.49-5.45-4.65a1.3,1.3,0,0,0-1.46.4,1.39,1.39,0,0,0,0,1.28l2.23,2.65-.67.08A1.36,1.36,0,0,0,27,32.85a2.74,2.74,0,0,0,.45,1.53s0,.08-.22.17a2.07,2.07,0,0,0-.82.88,1.65,1.65,0,0,0,.17,1.08,2.88,2.88,0,0,1,.19.64H26.6c-.35.45,0,1.5.47,2.14a7.15,7.15,0,0,0,2,1.6,5.76,5.76,0,0,1,1.32,1,3.06,3.06,0,0,0,1.69.79c.38,0,1,.58,1,.58l1.19,2.59,0,.1a22.3,22.3,0,0,1-9,1.9A22.49,22.49,0,0,1,4,17.91Z"/><rect class="cls-2" x="1.59" y="51.89" width="47.05" height="1.16"/><path class="cls-2" d="M46.13,79.67a14.89,14.89,0,0,0-1.64-.06H5.42a11.38,11.38,0,0,0-1.93.13,2.34,2.34,0,0,0-2,2.13A2.38,2.38,0,0,0,2.89,84.3a12.09,12.09,0,0,0,1.23.44c-.5,2.1-.42,2.4,1.47,3.7.53.36.22.66.18,1a2.23,2.23,0,0,0,2.16,2.63c.4,0,.8,0,1.19,0a5.55,5.55,0,0,1,.11,1.77q0,12.51,0,25c0,1.49.1,1.6,1.56,1.73a20.64,20.64,0,0,0,6.07-.38,23,23,0,0,0,8.26-4c2.67-1.8,5.2-3.82,8.16-5.16a20.47,20.47,0,0,1,6.53-1.18c.75,0,.9-.29.9-1,0-2.22,0-4.45,0-6.67,0-3.41-.12-6.82.08-10.23h.44c2.32,0,3-.69,2.82-3,0-.27,0-.46.27-.58,1.76-.73,2.1-2.07,1.47-3.78a7.14,7.14,0,0,0,.92-.24,2.5,2.5,0,0,0,1.73-2.65A2.47,2.47,0,0,0,46.13,79.67Zm-28,37.7c0,1.59,0,1.59-1.51,1.91l-.72.15c-1.41.24-1.45.23-1.45-1.16,0-3.62,0-7.24,0-10.86V97.29a11.86,11.86,0,0,1,0-1.19,1.75,1.75,0,0,1,1.73-1.69A1.82,1.82,0,0,1,18.08,96a6.74,6.74,0,0,1,0,1.19Zm7.68-2.71c-.92.57-1.79,1.2-2.93,2,0-6.9,0-13.49,0-20.08,0-1.38.76-2.17,1.92-2.14s1.74.76,1.74,2.13c0,5.55,0,11.11,0,16.66A1.5,1.5,0,0,1,25.8,114.66Zm8.45-4.8a1.26,1.26,0,0,0-.94.38c-.31.09-.62.18-.92.29s-.53.07-.64-.28c-.14,0-.36,0-.36-.15s.23-.14.37-.15c0-4.31,0-8.63,0-12.94a3.23,3.23,0,0,1,.63-2.22c1.61-1,3.2.07,3.14,2-.11,3.76,0,7.53,0,11.29C35.64,109.12,35.37,109.72,34.25,109.86Zm5.53-2.52c0,1.58,0,1.58-1.62,1.7l-.44,0c-1.17.08-1.19.08-1.19-1.15,0-3.77,0-7.54,0-11.31a3,3,0,0,0-1.27-2.7,2.55,2.55,0,0,0-3.28.17,2.81,2.81,0,0,0-1.1,2.61c0,4.43,0,8.85,0,13.27a1.78,1.78,0,0,1-1,1.9,22.41,22.41,0,0,0-2.13,1.36,2.2,2.2,0,0,1-.19-1.37c0-4.72,0-9.43,0-14.15a12.55,12.55,0,0,0-.09-1.94,2.7,2.7,0,0,0-2.84-2.31A2.74,2.74,0,0,0,22,95.94a12,12,0,0,0,0,1.34v17.89c0,2.33-.25,2.63-2.79,3.17a4.37,4.37,0,0,1-.1-1.57c0-6.75,0-13.51,0-20.26,0-1.83-1-3-2.56-3.05a2.69,2.69,0,0,0-2.93,2.2,8,8,0,0,0-.11,1.63c0,7,0,14,0,21,0,.48.32,1.25-.41,1.39a3.6,3.6,0,0,1-2.61-.27c-.21-.13-.15-.45-.15-.7q0-13.18,0-26.37a1.53,1.53,0,0,1,.07-.29H39.59a3.28,3.28,0,0,1,.19,1.61C39.7,98.22,39.71,102.78,39.78,107.34Zm1.31-16.19H8.9c-1.56,0-2.22-.42-2.18-1.36s.66-1.27,2.14-1.27H41.05c1.57,0,2.21.41,2.18,1.37S42.6,91.15,41.09,91.15Zm2.25-3.58H7.3c-1.74,0-2.43-.42-2.46-1.46s.72-1.54,2.54-1.54H42.53c.3,0,.6,0,.89,0,1,.06,1.72.65,1.74,1.47S44.47,87.57,43.34,87.57Zm3-4a4.19,4.19,0,0,1-1.18.11H4.68a2.66,2.66,0,0,1-1.44-.27,1.39,1.39,0,0,1-.71-1.51,1.28,1.28,0,0,1,1.12-1.2A7.48,7.48,0,0,1,5,80.63H44.91a11.86,11.86,0,0,1,1.19,0A1.34,1.34,0,0,1,47.44,82,1.38,1.38,0,0,1,46.37,83.55Z"/><polygon class="cls-2" points="6.13 65.8 6.13 65.76 6.13 55.61 6.13 55.6 6.13 53.99 4.51 53.99 4.51 55.59 4.51 55.61 4.51 65.76 4.51 65.78 4.51 67.39 6.13 67.39 6.13 65.8"/><path class="cls-2" d="M46.5,64.65c0-1.61-1.35-2.3-2.79-2.93-1.77-.87-2.37-1.06-2.35-2.06,0-1.33,1.09-1.73,2-1.73a4.08,4.08,0,0,1,2.59,1V57.42a5.84,5.84,0,0,0-2.18-.35c-1.68,0-3.19.6-3.58,2l-2.07,5.13-.22.65-.19-.65-1.64-4-.54-1.33a1.22,1.22,0,0,1-.07-.17l-.53-1.32A10.17,10.17,0,0,0,32.67,57h-.22c-1.93,0-3.79.81-3.79,2.73,0,.11,0,.22,0,.32A4.85,4.85,0,0,0,24.28,57a3.85,3.85,0,0,0-.69.06H18.13c-.22-1.38.42-2.16,1.39-2.16a2.86,2.86,0,0,1,2.26.84h0s0-.06,0-.16V54.22a5.17,5.17,0,0,0-2.05-.28A3,3,0,0,0,16.71,57h-1.3v1H16.7v7.76a.28.28,0,0,1,0,.09v1.54h1.46V58h3.28a5.66,5.66,0,0,0-2,4.39,5.16,5.16,0,0,0,4.85,5.42,5.16,5.16,0,0,0,4.84-5.42,5.92,5.92,0,0,0-.09-1c.48.77,1.41,1.15,2.65,1.69,1.46.61,2.28,1.15,2.28,2.07,0,1.11-1.05,1.68-2.22,1.68a4.31,4.31,0,0,1-3-1.38v1.74a4.93,4.93,0,0,0,2.57.62c1.28,0,3.92-.47,3.92-3.15,0-1.61-1.34-2.3-2.79-2.93C30.64,60.82,30,60.63,30,59.63c0-1.33,1.16-1.73,2.06-1.73a3.45,3.45,0,0,1,1.05.16,1.77,1.77,0,0,1,1,1.15,3.8,3.8,0,0,0,.16.35l-.06-.13s.1.23.06.13L37,66.2c-.46,1.06-1,2.17-1.34,2.87v0l-.3.56-.34.63h1.43c.62-1.38,3.27-7.83,3.84-9.22.38,1,1.29,1.4,2.69,2s2.28,1.15,2.28,2.07c0,1.11-1,1.68-2.22,1.68a4.49,4.49,0,0,1-3.16-1.48l-.09-.08V67a4.58,4.58,0,0,0,2.78.77C43.86,67.79,46.5,67.33,46.5,64.65ZM24.3,66.86c-1.83,0-3.35-1.92-3.39-4.35s1.4-4.44,3.23-4.47,3.35,1.92,3.39,4.35S26.12,66.83,24.3,66.86Z"/><path class="cls-2" d="M13.74,65.47v1.92h1.45v-8A2.88,2.88,0,0,0,12.35,57a3.72,3.72,0,0,0-3.12,1.27.67.67,0,0,0-.06.12h0V58.3l0-1.17H7.72V67.39H9.17v-7.5c.05-.92,1.34-1.83,2.35-1.83A2.06,2.06,0,0,1,13.73,60Z"/><rect class="cls-2" x="36.19" y="71.86" width="0.78" height="0.78"/><polygon class="cls-2" points="4.29 77.69 5.12 77.69 5.12 75.04 7.16 75.04 7.16 74.43 5.12 74.43 5.12 72.47 7.55 72.47 7.55 71.86 4.29 71.86 4.29 77.69"/><path class="cls-2" d="M10.34,73.31a1.94,1.94,0,0,0-1.49.6,2.72,2.72,0,0,0,0,3.28,1.94,1.94,0,0,0,1.49.6,1.94,1.94,0,0,0,1.5-.6,2.72,2.72,0,0,0,0-3.28A1.94,1.94,0,0,0,10.34,73.31Zm.9,3.46a1.13,1.13,0,0,1-1.79,0,2.49,2.49,0,0,1,0-2.44,1,1,0,0,1,.89-.43,1,1,0,0,1,.9.43,2.49,2.49,0,0,1,0,2.44Z"/><path class="cls-2" d="M16.28,76.18a1.71,1.71,0,0,1-1.34.94.54.54,0,0,1-.47-.2,1.32,1.32,0,0,1-.14-.69V73.41h-.78v3.07a1.37,1.37,0,0,0,.33,1,1.21,1.21,0,0,0,.9.35,1.8,1.8,0,0,0,1.5-.9v.8h.78V73.41h-.78Z"/><path class="cls-2" d="M20.9,73.31a1.79,1.79,0,0,0-1.51.9v-.8h-.78v4.28h.78V74.92A1.74,1.74,0,0,1,20.73,74a.53.53,0,0,1,.47.21,1.25,1.25,0,0,1,.14.68v2.82h.77V74.61a1.35,1.35,0,0,0-.32-.94A1.17,1.17,0,0,0,20.9,73.31Z"/><path class="cls-2" d="M26.38,73.9a1.62,1.62,0,0,0-1.27-.59,1.6,1.6,0,0,0-1.32.65,2.73,2.73,0,0,0-.51,1.72,2.42,2.42,0,0,0,.45,1.55,1.48,1.48,0,0,0,1.22.56,1.54,1.54,0,0,0,1.43-.9v.8h.77V71.46h-.77Zm0,2.5a1.76,1.76,0,0,1-1.27.71c-.67,0-1-.5-1-1.5a2.27,2.27,0,0,1,.3-1.27.93.93,0,0,1,.82-.44,1.83,1.83,0,0,1,1.15.53Z"/><path class="cls-2" d="M32,77.25c-.28,0-.41-.22-.41-.67V74.64a1.36,1.36,0,0,0-.34-1,1.47,1.47,0,0,0-1-.33,4,4,0,0,0-1.48.32v.65A2.72,2.72,0,0,1,30,73.9c.52,0,.78.25.78.74v.52h-.18a3.13,3.13,0,0,0-1.69.38,1.19,1.19,0,0,0-.59,1.07,1.12,1.12,0,0,0,.35.85,1.23,1.23,0,0,0,.88.33,2.1,2.1,0,0,0,1.35-.64c.1.42.33.64.69.64a1.24,1.24,0,0,0,.58-.13l0-.43Zm-1.19-.52a1.65,1.65,0,0,1-1,.42.65.65,0,0,1-.48-.19.63.63,0,0,1-.2-.47.73.73,0,0,1,.4-.64,2,2,0,0,1,1-.24h.25Z"/><path class="cls-2" d="M34,72.56l-.78.07v.78h-.54V74h.54v2.52a1.3,1.3,0,0,0,.33.94,1.21,1.21,0,0,0,.92.34,2.27,2.27,0,0,0,.63-.1v-.54a1.54,1.54,0,0,1-.38.06q-.72,0-.72-.84V74H35.1v-.58H34Z"/><rect class="cls-2" x="36.19" y="73.41" width="0.78" height="4.28"/><path class="cls-2" d="M40.23,73.31a1.94,1.94,0,0,0-1.5.6,2.72,2.72,0,0,0,0,3.28,2.16,2.16,0,0,0,3,0,2.72,2.72,0,0,0,0-3.28A1.94,1.94,0,0,0,40.23,73.31Zm.89,3.46a1.13,1.13,0,0,1-1.79,0,2.49,2.49,0,0,1,0-2.44,1.15,1.15,0,0,1,1.79,0,2.49,2.49,0,0,1,0,2.44Z"/><path class="cls-2" d="M46.66,73.67a1.15,1.15,0,0,0-.89-.36,1.79,1.79,0,0,0-1.51.9v-.8h-.78v4.28h.78V74.92A1.74,1.74,0,0,1,45.6,74a.53.53,0,0,1,.47.21,1.25,1.25,0,0,1,.14.68v2.82H47V74.61A1.35,1.35,0,0,0,46.66,73.67Z"/></svg>