<svg width="124" height="45" viewBox="0 0 124 45" fill="none" xmlns="http://www.w3.org/2000/svg">
<mask id="path-1-outside-1_1517_469" maskUnits="userSpaceOnUse" x="0" y="1.2888" width="40" height="41" fill="black">
<rect fill="white" y="1.2888" width="40" height="41"/>
<path fill-rule="evenodd" clip-rule="evenodd" d="M21.2518 11.7356C21.2463 12.3727 21.2409 13.0099 21.2409 13.647C21.0204 20.8365 20.9646 28.0428 20.9786 35.2379C20.9537 35.8907 20.9854 36.5443 21.0734 37.1916C21.1874 37.9115 21.544 38.5708 22.0842 39.0601C22.6243 39.5495 23.3155 39.8395 24.043 39.8821C24.7664 39.9422 25.4894 39.7631 26.101 39.3723C26.7127 38.9815 27.1791 38.4007 27.4285 37.7191C27.5796 37.2314 27.6843 36.7305 27.7411 36.2231C28.1932 33.3484 29.7087 31.9585 32.589 31.872C33.9063 31.8329 35.0897 31.4534 36.0107 30.5323C37.3169 29.2234 37.8499 27.6074 37.2722 25.8045C36.6749 23.9513 35.1288 23.2786 33.3649 23.1726C31.9849 23.0896 30.601 23.0933 29.2177 23.0971C28.6006 23.0988 27.9836 23.1005 27.3671 23.0944C27.1606 23.0888 26.9536 23.0918 26.7467 23.0948C26.442 23.0993 26.1374 23.1037 25.8348 23.0805C25.7265 23.0726 25.6116 23.0685 25.4943 23.0644C24.7835 23.0394 23.9816 23.0111 23.9816 22.1008C23.984 21.1327 24.7856 21.1775 25.472 21.2159C25.6009 21.2231 25.7257 21.2301 25.8404 21.2301C28.1681 21.2022 30.493 21.1994 32.8178 21.258C36.7838 21.3612 39.3375 23.6498 39.3375 27.0492C39.3431 30.6524 36.5382 33.5103 32.8039 33.7224C30.6548 33.8424 29.9292 34.4341 29.5385 36.5692C29.2761 38.0121 28.9775 39.4104 27.7969 40.4152C26.1642 41.8023 24.3193 42.1902 22.335 41.3529C20.2976 40.4961 19.1812 38.855 19.1309 36.6808C19.0528 33.2368 19.0444 29.79 19.1812 26.3543C19.362 21.8124 19.3491 17.2764 19.3362 12.742C19.3314 11.0461 19.3266 9.35046 19.3319 7.65481C19.3319 5.66485 18.1401 4.36984 16.3986 4.20518C14.657 4.04051 13.1415 5.25737 12.734 7.14964C12.0447 10.362 10.9757 11.2663 7.72426 11.3891C4.82724 11.4952 2.84566 13.4851 2.89031 16.2398C2.93217 18.8103 5.05889 20.8533 7.78567 20.9454C8.66847 20.976 9.55475 20.9678 10.4421 20.9597C12.0654 20.9449 13.6922 20.93 15.3073 21.1519C15.3744 21.1609 15.444 21.1685 15.5145 21.1762C16.0606 21.2361 16.6671 21.3026 16.6498 22.0366C16.6306 22.8521 15.8901 22.8518 15.3027 22.8516C15.2931 22.8516 15.2834 22.8516 15.2738 22.8516C14.6263 22.8543 13.9788 22.8607 13.3315 22.867C11.2778 22.8872 9.22569 22.9074 7.18002 22.8097C3.79179 22.6423 1.02874 19.6169 1.00083 16.2231C0.974078 14.5311 1.59492 12.8928 2.73633 11.6435C3.87774 10.3941 5.45341 9.62822 7.14095 9.50242C7.51215 9.47451 7.88335 9.45777 8.25734 9.45777C9.73655 9.43544 10.5906 8.70979 10.825 7.23895C11.0343 5.93278 11.4223 4.69638 12.4438 3.76978C14.0793 2.28778 15.9716 1.8775 18.0006 2.72317C20.0296 3.56883 21.1488 5.16806 21.2242 7.37013C21.2766 8.82426 21.2642 10.2797 21.2518 11.7356Z"/>
</mask>
<path fill-rule="evenodd" clip-rule="evenodd" d="M21.2518 11.7356C21.2463 12.3727 21.2409 13.0099 21.2409 13.647C21.0204 20.8365 20.9646 28.0428 20.9786 35.2379C20.9537 35.8907 20.9854 36.5443 21.0734 37.1916C21.1874 37.9115 21.544 38.5708 22.0842 39.0601C22.6243 39.5495 23.3155 39.8395 24.043 39.8821C24.7664 39.9422 25.4894 39.7631 26.101 39.3723C26.7127 38.9815 27.1791 38.4007 27.4285 37.7191C27.5796 37.2314 27.6843 36.7305 27.7411 36.2231C28.1932 33.3484 29.7087 31.9585 32.589 31.872C33.9063 31.8329 35.0897 31.4534 36.0107 30.5323C37.3169 29.2234 37.8499 27.6074 37.2722 25.8045C36.6749 23.9513 35.1288 23.2786 33.3649 23.1726C31.9849 23.0896 30.601 23.0933 29.2177 23.0971C28.6006 23.0988 27.9836 23.1005 27.3671 23.0944C27.1606 23.0888 26.9536 23.0918 26.7467 23.0948C26.442 23.0993 26.1374 23.1037 25.8348 23.0805C25.7265 23.0726 25.6116 23.0685 25.4943 23.0644C24.7835 23.0394 23.9816 23.0111 23.9816 22.1008C23.984 21.1327 24.7856 21.1775 25.472 21.2159C25.6009 21.2231 25.7257 21.2301 25.8404 21.2301C28.1681 21.2022 30.493 21.1994 32.8178 21.258C36.7838 21.3612 39.3375 23.6498 39.3375 27.0492C39.3431 30.6524 36.5382 33.5103 32.8039 33.7224C30.6548 33.8424 29.9292 34.4341 29.5385 36.5692C29.2761 38.0121 28.9775 39.4104 27.7969 40.4152C26.1642 41.8023 24.3193 42.1902 22.335 41.3529C20.2976 40.4961 19.1812 38.855 19.1309 36.6808C19.0528 33.2368 19.0444 29.79 19.1812 26.3543C19.362 21.8124 19.3491 17.2764 19.3362 12.742C19.3314 11.0461 19.3266 9.35046 19.3319 7.65481C19.3319 5.66485 18.1401 4.36984 16.3986 4.20518C14.657 4.04051 13.1415 5.25737 12.734 7.14964C12.0447 10.362 10.9757 11.2663 7.72426 11.3891C4.82724 11.4952 2.84566 13.4851 2.89031 16.2398C2.93217 18.8103 5.05889 20.8533 7.78567 20.9454C8.66847 20.976 9.55475 20.9678 10.4421 20.9597C12.0654 20.9449 13.6922 20.93 15.3073 21.1519C15.3744 21.1609 15.444 21.1685 15.5145 21.1762C16.0606 21.2361 16.6671 21.3026 16.6498 22.0366C16.6306 22.8521 15.8901 22.8518 15.3027 22.8516C15.2931 22.8516 15.2834 22.8516 15.2738 22.8516C14.6263 22.8543 13.9788 22.8607 13.3315 22.867C11.2778 22.8872 9.22569 22.9074 7.18002 22.8097C3.79179 22.6423 1.02874 19.6169 1.00083 16.2231C0.974078 14.5311 1.59492 12.8928 2.73633 11.6435C3.87774 10.3941 5.45341 9.62822 7.14095 9.50242C7.51215 9.47451 7.88335 9.45777 8.25734 9.45777C9.73655 9.43544 10.5906 8.70979 10.825 7.23895C11.0343 5.93278 11.4223 4.69638 12.4438 3.76978C14.0793 2.28778 15.9716 1.8775 18.0006 2.72317C20.0296 3.56883 21.1488 5.16806 21.2242 7.37013C21.2766 8.82426 21.2642 10.2797 21.2518 11.7356Z" fill="#00DEB2"/>
<path d="M21.2409 13.647L21.7348 13.6622L21.7351 13.6546V13.647H21.2409ZM21.2518 11.7356L21.7459 11.7398L21.7459 11.7398L21.2518 11.7356ZM20.9786 35.2379L21.4724 35.2567L21.4727 35.2468L21.4727 35.237L20.9786 35.2379ZM21.0734 37.1916L20.5837 37.2582L20.5854 37.2689L21.0734 37.1916ZM24.043 39.8821L24.084 39.3895L24.0719 39.3888L24.043 39.8821ZM26.101 39.3723L25.835 38.9559L25.835 38.9559L26.101 39.3723ZM27.4285 37.7191L27.8925 37.8889L27.8968 37.8772L27.9005 37.8654L27.4285 37.7191ZM27.7411 36.2231L27.2529 36.1464L27.2512 36.1572L27.25 36.1682L27.7411 36.2231ZM32.589 31.872L32.5743 31.3781L32.5741 31.3781L32.589 31.872ZM36.0107 30.5323L36.3601 30.8818L36.3605 30.8814L36.0107 30.5323ZM37.2722 25.8045L37.7428 25.6537L37.7425 25.6529L37.2722 25.8045ZM33.3649 23.1726L33.3352 23.6658L33.3352 23.6658L33.3649 23.1726ZM29.2177 23.0971L29.2163 22.603L29.2163 22.603L29.2177 23.0971ZM27.3671 23.0944L27.3536 23.5885L27.3622 23.5886L27.3671 23.0944ZM26.7467 23.0948L26.7395 22.6007L26.7395 22.6007L26.7467 23.0948ZM25.8348 23.0805L25.8727 22.5878L25.8708 22.5876L25.8348 23.0805ZM25.4943 23.0644L25.4769 23.5582L25.4769 23.5582L25.4943 23.0644ZM23.9816 22.1008L23.4875 22.0996V22.1008H23.9816ZM25.472 21.2159L25.4996 20.7225L25.4996 20.7225L25.472 21.2159ZM25.8404 21.2301V21.7243L25.8463 21.7242L25.8404 21.2301ZM32.8178 21.258L32.8307 20.764L32.8303 20.764L32.8178 21.258ZM39.3375 27.0492L38.8434 27.0492L38.8434 27.05L39.3375 27.0492ZM32.8039 33.7224L32.8314 34.2158L32.8319 34.2158L32.8039 33.7224ZM29.5385 36.5692L29.0524 36.4803L29.0523 36.4808L29.5385 36.5692ZM27.7969 40.4152L28.1168 40.7918L28.1172 40.7915L27.7969 40.4152ZM22.335 41.3529L22.5271 40.8976L22.5265 40.8974L22.335 41.3529ZM19.1309 36.6808L18.6369 36.6921L18.6369 36.6923L19.1309 36.6808ZM19.1812 26.3543L19.6749 26.3739L19.6749 26.3739L19.1812 26.3543ZM19.3362 12.742L19.8304 12.7406L19.8304 12.7406L19.3362 12.742ZM19.3319 7.65481L19.826 7.65635V7.65481H19.3319ZM16.3986 4.20518L16.3521 4.69713L16.3521 4.69713L16.3986 4.20518ZM12.734 7.14964L12.251 7.04562L12.2509 7.04596L12.734 7.14964ZM7.72426 11.3891L7.74234 11.8829L7.74291 11.8829L7.72426 11.3891ZM2.89031 16.2398L2.39622 16.2478L2.39622 16.2479L2.89031 16.2398ZM7.78567 20.9454L7.80277 20.4515L7.80235 20.4515L7.78567 20.9454ZM10.4421 20.9597L10.4466 21.4538L10.4466 21.4538L10.4421 20.9597ZM15.3073 21.1519L15.24 21.6415L15.242 21.6417L15.3073 21.1519ZM15.5145 21.1762L15.5684 20.685L15.5684 20.685L15.5145 21.1762ZM16.6498 22.0366L17.1438 22.0483L17.1438 22.0483L16.6498 22.0366ZM15.3027 22.8516L15.3025 23.3458L15.3025 23.3458L15.3027 22.8516ZM15.2738 22.8516L15.2738 22.3575L15.2718 22.3575L15.2738 22.8516ZM13.3315 22.867L13.3363 23.3611L13.3363 23.3611L13.3315 22.867ZM7.18002 22.8097L7.15563 23.3033L7.15647 23.3033L7.18002 22.8097ZM1.00083 16.2231L1.49498 16.219L1.49492 16.2153L1.00083 16.2231ZM2.73633 11.6435L2.37151 11.3102L2.37151 11.3102L2.73633 11.6435ZM7.14095 9.50242L7.17769 9.99521L7.178 9.99518L7.14095 9.50242ZM8.25734 9.45777L8.25734 9.95197L8.2648 9.95186L8.25734 9.45777ZM10.825 7.23895L10.3371 7.16076L10.337 7.16117L10.825 7.23895ZM12.4438 3.76978L12.112 3.4036L12.1118 3.40377L12.4438 3.76978ZM18.0006 2.72317L17.8105 3.17929L17.8105 3.17929L18.0006 2.72317ZM21.2242 7.37013L20.7303 7.38703L20.7303 7.38793L21.2242 7.37013ZM21.7351 13.647C21.7351 13.0123 21.7405 12.3773 21.7459 11.7398L20.7576 11.7314C20.7522 12.3681 20.7468 13.0074 20.7468 13.647H21.7351ZM21.4727 35.237C21.4588 28.0448 21.5146 20.8444 21.7348 13.6622L20.747 13.6319C20.5263 20.8287 20.4704 28.0408 20.4844 35.2389L21.4727 35.237ZM21.5631 37.125C21.4789 36.506 21.4486 35.8809 21.4724 35.2567L20.4848 35.2191C20.4588 35.9004 20.4919 36.5826 20.5838 37.2582L21.5631 37.125ZM22.4159 38.6939C21.9593 38.2802 21.6579 37.7229 21.5615 37.1143L20.5854 37.2689C20.717 38.1 21.1287 38.8613 21.7524 39.4263L22.4159 38.6939ZM24.0719 39.3888C23.4568 39.3528 22.8725 39.1076 22.4159 38.6939L21.7524 39.4263C22.376 39.9913 23.1741 40.3262 24.0142 40.3754L24.0719 39.3888ZM25.835 38.9559C25.3146 39.2884 24.6994 39.4408 24.084 39.3896L24.0021 40.3745C24.8333 40.4436 25.6642 40.2378 26.3671 39.7887L25.835 38.9559ZM26.9644 37.5493C26.7522 38.1292 26.3554 38.6234 25.835 38.9559L26.3671 39.7887C27.07 39.3396 27.6059 38.6722 27.8925 37.8889L26.9644 37.5493ZM27.25 36.1682C27.1967 36.6446 27.0984 37.1149 26.9565 37.5728L27.9005 37.8654C28.0609 37.3479 28.1719 36.8165 28.2322 36.2781L27.25 36.1682ZM32.5741 31.3781C31.0591 31.4236 29.8328 31.8147 28.9235 32.6351C28.016 33.4538 27.4897 34.6412 27.2529 36.1464L28.2292 36.2999C28.4446 34.9304 28.9021 33.9854 29.5855 33.3689C30.267 32.7541 31.2386 32.4069 32.6038 32.3659L32.5741 31.3781ZM35.6613 30.1829C34.8529 30.9913 33.8035 31.3416 32.5743 31.3781L32.6036 32.3659C34.0091 32.3243 35.3264 31.9154 36.3601 30.8818L35.6613 30.1829ZM36.8016 25.9552C37.3141 27.5547 36.8581 28.9835 35.6609 30.1833L36.3605 30.8814C37.7756 29.4633 38.3857 27.6601 37.7428 25.6537L36.8016 25.9552ZM33.3352 23.6658C34.1684 23.7159 34.9095 23.8982 35.4999 24.256C36.0792 24.6069 36.5395 25.1418 36.8019 25.956L37.7425 25.6529C37.4077 24.6139 36.7962 23.8858 36.0121 23.4107C35.2392 22.9424 34.3252 22.7353 33.3945 22.6793L33.3352 23.6658ZM29.219 23.5913C30.6049 23.5875 31.9733 23.5839 33.3352 23.6658L33.3945 22.6793C31.9965 22.5952 30.597 22.5992 29.2163 22.603L29.219 23.5913ZM27.3622 23.5886C27.9823 23.5946 28.6024 23.5929 29.219 23.5913L29.2163 22.603C28.5987 22.6046 27.9848 22.6063 27.3719 22.6003L27.3622 23.5886ZM26.754 23.5889C26.9626 23.5859 27.1592 23.5831 27.3536 23.5884L27.3806 22.6005C27.162 22.5945 26.9446 22.5977 26.7395 22.6007L26.754 23.5889ZM25.7969 23.5732C26.1258 23.5985 26.453 23.5933 26.754 23.5889L26.7395 22.6007C26.4309 22.6052 26.149 22.609 25.8727 22.5878L25.7969 23.5732ZM25.4769 23.5582C25.5962 23.5624 25.7015 23.5662 25.7989 23.5733L25.8708 22.5876C25.7515 22.5789 25.627 22.5746 25.5117 22.5705L25.4769 23.5582ZM23.4875 22.1008C23.4875 22.4019 23.5545 22.6745 23.7053 22.9037C23.8565 23.1333 24.0649 23.278 24.2768 23.3688C24.6684 23.5366 25.1495 23.5467 25.4769 23.5582L25.5117 22.5705C25.1283 22.557 24.8531 22.5405 24.666 22.4604C24.5886 22.4272 24.5521 22.3926 24.5308 22.3602C24.509 22.3272 24.4758 22.255 24.4758 22.1008H23.4875ZM25.4996 20.7225C25.1883 20.7051 24.7023 20.6696 24.3002 20.817C24.0788 20.8982 23.8617 21.0402 23.7059 21.2776C23.5529 21.5106 23.4882 21.791 23.4875 22.0996L24.4758 22.102C24.4762 21.9266 24.5126 21.8496 24.5321 21.8199C24.5487 21.7946 24.5753 21.7688 24.6404 21.7449C24.8112 21.6823 25.0693 21.6883 25.4444 21.7093L25.4996 20.7225ZM25.8404 20.7359C25.7421 20.7359 25.6317 20.7299 25.4996 20.7225L25.4444 21.7093C25.57 21.7163 25.7093 21.7242 25.8404 21.7242V20.7359ZM32.8303 20.764C30.497 20.7052 28.1654 20.708 25.8345 20.7359L25.8463 21.7242C28.1707 21.6963 30.4889 21.6936 32.8054 21.752L32.8303 20.764ZM39.8317 27.0492C39.8317 25.2173 39.1394 23.658 37.8935 22.5485C36.654 21.4447 34.9035 20.818 32.8307 20.764L32.805 21.752C34.6981 21.8012 36.2075 22.3704 37.2363 23.2866C38.2588 24.1971 38.8434 25.4817 38.8434 27.0492H39.8317ZM32.8319 34.2158C36.8108 33.9898 39.8377 30.9309 39.8317 27.0485L38.8434 27.05C38.8485 30.3738 36.2656 33.0308 32.7759 33.2291L32.8319 34.2158ZM30.0245 36.6582C30.2152 35.6165 30.4692 35.0792 30.8343 34.7645C31.2023 34.4475 31.7774 34.2747 32.8314 34.2158L32.7763 33.229C31.6813 33.2902 30.819 33.4732 30.1893 34.0158C29.5567 34.5608 29.2525 35.3868 29.0524 36.4803L30.0245 36.6582ZM28.1172 40.7915C29.448 39.6588 29.7648 38.0866 30.0246 36.6576L29.0523 36.4808C28.7874 37.9377 28.5069 39.162 27.4766 40.0388L28.1172 40.7915ZM22.1429 41.8082C24.3179 42.7259 26.3582 42.2858 28.1168 40.7918L27.4769 40.0386C25.9701 41.3187 24.3208 41.6545 22.5271 40.8976L22.1429 41.8082ZM18.6369 36.6923C18.6917 39.0629 19.9281 40.8768 22.1434 41.8084L22.5265 40.8974C20.667 40.1154 19.6707 38.6471 19.625 36.6694L18.6369 36.6923ZM18.6874 26.3346C18.5501 29.7839 18.5586 33.2417 18.6369 36.6921L19.625 36.6696C19.547 33.2319 19.5387 29.796 19.6749 26.3739L18.6874 26.3346ZM18.8421 12.7434C18.8549 17.2795 18.8677 21.805 18.6874 26.3346L19.6749 26.3739C19.8562 21.8197 19.8432 17.2732 19.8304 12.7406L18.8421 12.7434ZM18.8377 7.65326C18.8324 9.35063 18.8372 11.0478 18.8421 12.7434L19.8304 12.7406C19.8255 11.0445 19.8207 9.35029 19.826 7.65635L18.8377 7.65326ZM16.3521 4.69713C17.1088 4.76869 17.7208 5.08132 18.1454 5.56973C18.5711 6.05934 18.8377 6.75972 18.8377 7.65481H19.826C19.826 6.55994 19.4968 5.61783 18.8912 4.92129C18.2846 4.22354 17.4299 3.80633 16.4451 3.71322L16.3521 4.69713ZM13.2171 7.25367C13.5804 5.56688 14.8979 4.55964 16.3521 4.69713L16.4451 3.71322C14.4161 3.52137 12.7027 4.94786 12.251 7.04562L13.2171 7.25367ZM7.74291 11.8829C9.392 11.8206 10.6165 11.5605 11.5091 10.8052C12.4007 10.0508 12.8679 8.88098 13.2172 7.25332L12.2509 7.04596C11.9108 8.63071 11.4989 9.51925 10.8707 10.0508C10.2437 10.5814 9.30801 10.8348 7.70561 10.8953L7.74291 11.8829ZM3.3844 16.2318C3.3641 14.9797 3.80219 13.9248 4.55422 13.17C5.30787 12.4136 6.40398 11.9319 7.74234 11.8829L7.70619 10.8953C6.14753 10.9524 4.80433 11.5187 3.8541 12.4725C2.90224 13.4278 2.37187 14.7452 2.39622 16.2478L3.3844 16.2318ZM7.80235 20.4515C5.31235 20.3674 3.42156 18.5134 3.3844 16.2318L2.39622 16.2479C2.44279 19.1072 4.80544 21.3392 7.76898 21.4393L7.80235 20.4515ZM10.4375 20.4656C9.54839 20.4737 8.67295 20.4817 7.80277 20.4515L7.76856 21.4392C8.66399 21.4703 9.56111 21.462 10.4466 21.4538L10.4375 20.4656ZM15.3746 20.6624C13.7178 20.4347 12.0549 20.4508 10.4375 20.4656L10.4466 21.4538C12.076 21.4389 13.6666 21.4252 15.24 21.6415L15.3746 20.6624ZM15.5684 20.685C15.4967 20.6772 15.433 20.6701 15.3726 20.6621L15.242 21.6417C15.3158 21.6516 15.3912 21.6598 15.4607 21.6674L15.5684 20.685ZM17.1438 22.0483C17.1497 21.7961 17.1026 21.5611 16.9857 21.3562C16.8679 21.1495 16.7001 21.0103 16.5256 20.9174C16.2072 20.7479 15.8141 20.712 15.5684 20.685L15.4607 21.6674C15.7611 21.7004 15.9442 21.7276 16.0613 21.7898C16.1044 21.8128 16.1191 21.8316 16.1272 21.8458C16.1363 21.8616 16.1585 21.9102 16.1558 22.025L17.1438 22.0483ZM15.3025 23.3458C15.5702 23.3459 16.0041 23.3527 16.369 23.2104C16.5666 23.1332 16.7671 23.0051 16.9169 22.7939C17.0668 22.5825 17.1372 22.3283 17.1438 22.0483L16.1558 22.025C16.1527 22.1528 16.1234 22.2043 16.1107 22.2222C16.0979 22.2403 16.0729 22.265 16.0097 22.2897C15.8526 22.351 15.6226 22.3576 15.3029 22.3575L15.3025 23.3458ZM15.2738 23.3458C15.2833 23.3458 15.2928 23.3458 15.3025 23.3458L15.3029 22.3575C15.2933 22.3575 15.2835 22.3575 15.2738 22.3575V23.3458ZM13.3363 23.3611C13.9839 23.3548 14.63 23.3484 15.2759 23.3458L15.2718 22.3575C14.6226 22.3602 13.9737 22.3665 13.3266 22.3729L13.3363 23.3611ZM7.15647 23.3033C9.2187 23.4017 11.2851 23.3813 13.3363 23.3611L13.3266 22.3729C11.2706 22.3931 9.23267 22.413 7.20358 22.3162L7.15647 23.3033ZM0.506695 16.2271C0.536641 19.8686 3.49194 23.1222 7.15563 23.3033L7.20442 22.3162C4.09164 22.1624 1.52084 19.3651 1.49497 16.219L0.506695 16.2271ZM2.37151 11.3102C1.14508 12.6525 0.477996 14.4128 0.50674 16.2309L1.49492 16.2153C1.47016 14.6493 2.04476 13.133 3.10115 11.9768L2.37151 11.3102ZM7.10422 9.00964C5.29098 9.14481 3.59794 9.96778 2.37151 11.3102L3.10115 11.9768C4.15754 10.8205 5.61585 10.1116 7.17769 9.99521L7.10422 9.00964ZM8.25734 8.96361C7.86865 8.96361 7.48486 8.98102 7.1039 9.00966L7.178 9.99518C7.53945 9.96801 7.89805 9.95192 8.25734 9.95192V8.96361ZM10.337 7.16117C10.2323 7.81799 10.0001 8.24637 9.68565 8.51699C9.37068 8.78803 8.91174 8.95368 8.24988 8.96367L8.2648 9.95186C9.08215 9.93952 9.78983 9.73119 10.3303 9.26611C10.8712 8.80062 11.1833 8.13076 11.313 7.31674L10.337 7.16117ZM12.1118 3.40377C10.9653 4.44374 10.5525 5.81658 10.3371 7.16076L11.3129 7.31715C11.5162 6.04899 11.8793 4.94902 12.7758 4.13578L12.1118 3.40377ZM18.1907 2.26704C17.0965 1.81101 16.0171 1.68575 14.9798 1.88863C13.9447 2.09108 12.9835 2.61383 12.112 3.4036L12.7756 4.13596C13.5395 3.44372 14.3423 3.02034 15.1695 2.85856C15.9944 2.69723 16.8756 2.78966 17.8105 3.17929L18.1907 2.26704ZM21.718 7.35323C21.6776 6.17063 21.3551 5.12513 20.7507 4.25591C20.1465 3.3869 19.2792 2.72069 18.1907 2.26704L17.8105 3.17929C18.7511 3.5713 19.4578 4.12754 19.9393 4.82008C20.4206 5.51241 20.6954 6.36756 20.7303 7.38703L21.718 7.35323ZM21.7459 11.7398C21.7583 10.2858 21.7709 8.8193 21.718 7.35233L20.7303 7.38793C20.7823 8.82922 20.7701 10.2737 20.7576 11.7314L21.7459 11.7398Z" fill="#00DEB2" mask="url(#path-1-outside-1_1517_469)"/>
<path d="M57.89 20V11.2893L54.488 17.7756H53.0487L49.6466 11.2893V20H47.0671V6.72831H49.8336L53.759 14.2801L57.7218 6.72831H60.4696V20H57.89ZM67.7494 20.187C66.9643 20.187 66.2539 20.0561 65.6184 19.7944C64.9829 19.5203 64.4408 19.1526 63.9921 18.6916C63.5435 18.218 63.1946 17.6822 62.9454 17.084C62.7086 16.4734 62.5902 15.8316 62.5902 15.1587C62.5902 14.224 62.7958 13.3704 63.2071 12.5978C63.6308 11.8251 64.2289 11.2083 65.0015 10.7472C65.7866 10.2737 66.7088 10.0369 67.768 10.0369C68.8398 10.0369 69.7557 10.2737 70.5159 10.7472C71.276 11.2083 71.8555 11.8251 72.2543 12.5978C72.6655 13.3579 72.8711 14.1804 72.8711 15.0652C72.8711 15.2147 72.8649 15.3705 72.8524 15.5325C72.84 15.682 72.8275 15.8067 72.815 15.9064H65.2446C65.2944 16.4048 65.4377 16.841 65.6745 17.2148C65.9237 17.5887 66.2353 17.8753 66.6091 18.0747C66.9954 18.2616 67.4067 18.3551 67.8428 18.3551C68.3413 18.3551 68.8086 18.2367 69.2448 17.9999C69.6934 17.7507 69.9987 17.4267 70.1607 17.0279L72.3103 17.6261C72.0736 18.1245 71.7309 18.5669 71.2822 18.9532C70.8461 19.3396 70.3289 19.6449 69.7308 19.8692C69.1326 20.081 68.4721 20.187 67.7494 20.187ZM65.1885 14.3175H70.3102C70.2604 13.819 70.1171 13.3891 69.8803 13.0277C69.656 12.6539 69.3569 12.3672 68.9831 12.1678C68.6092 11.956 68.1917 11.8501 67.7307 11.8501C67.282 11.8501 66.8708 11.956 66.497 12.1678C66.1356 12.3672 65.8365 12.6539 65.5997 13.0277C65.3754 13.3891 65.2383 13.819 65.1885 14.3175ZM80.5491 19.4953C80.3372 19.5826 80.0818 19.6823 79.7827 19.7944C79.4836 19.9066 79.1596 19.9938 78.8107 20.0561C78.4742 20.1309 78.1315 20.1683 77.7826 20.1683C77.3215 20.1683 76.8978 20.0873 76.5115 19.9253C76.1252 19.7633 75.8136 19.5078 75.5769 19.1589C75.3526 18.7975 75.2404 18.3302 75.2404 17.7569V12.1305H73.9506V10.2051H75.2404V7.02739H77.7452V10.2051H79.8014V12.1305H77.7452V16.9158C77.7577 17.2522 77.8511 17.4952 78.0256 17.6448C78.2001 17.7943 78.4181 17.8691 78.6798 17.8691C78.9415 17.8691 79.197 17.8255 79.4462 17.7382C79.6955 17.651 79.8948 17.5762 80.0444 17.5139L80.5491 19.4953ZM82.4705 20V6.72831H91.3868V8.99011H85.0501V12.4108H90.3214V14.5044H85.0501V20H82.4705ZM93.3163 6.35446H95.8211V16.8597C95.8211 17.3083 95.8958 17.6136 96.0454 17.7756C96.1949 17.9252 96.4005 17.9999 96.6622 17.9999C96.8616 17.9999 97.0672 17.975 97.2791 17.9252C97.4909 17.8753 97.6779 17.813 97.8399 17.7382L98.1763 19.6449C97.8399 19.8069 97.4473 19.9315 96.9987 20.0187C96.5501 20.106 96.1451 20.1496 95.7837 20.1496C94.9986 20.1496 94.388 19.944 93.9518 19.5327C93.5281 19.109 93.3163 18.5109 93.3163 17.7382V6.35446ZM99.548 16.3363V10.2051H102.053V15.7942C102.053 16.5419 102.19 17.1089 102.464 17.4952C102.738 17.8691 103.143 18.056 103.679 18.056C104.003 18.056 104.321 17.9937 104.632 17.8691C104.956 17.732 105.249 17.5326 105.511 17.2709C105.785 17.0092 106.016 16.679 106.203 16.2802V10.2051H108.707V17.1961C108.707 17.4578 108.751 17.6448 108.838 17.7569C108.938 17.8691 109.094 17.9376 109.306 17.9625V20C109.056 20.0374 108.844 20.0623 108.67 20.0748C108.508 20.0997 108.358 20.1122 108.221 20.1122C107.773 20.1122 107.405 20.0125 107.119 19.8131C106.844 19.6013 106.682 19.3146 106.633 18.9532L106.576 18.1682C106.14 18.8286 105.58 19.3333 104.894 19.6823C104.209 20.0187 103.455 20.187 102.632 20.187C101.623 20.187 100.857 19.863 100.333 19.2149C99.8097 18.5545 99.548 17.5949 99.548 16.3363ZM113.178 10.2051L115.234 13.2707L115.384 13.6072L115.571 13.2707L117.608 10.2051H120.244L116.842 15.0839L120.3 20H117.664L115.552 16.9531L115.384 16.6354L115.234 16.9531L113.141 20H110.505L113.963 15.14L110.561 10.2051H113.178ZM46.8251 40V30.0462H51.0309C51.4609 30.0462 51.8534 30.135 52.2086 30.3126C52.5637 30.4902 52.8722 30.7332 53.1339 31.0416C53.4049 31.3407 53.6105 31.6772 53.7507 32.051C53.9003 32.4155 53.975 32.7894 53.975 33.1726C53.975 33.6492 53.8816 34.0979 53.6946 34.5184C53.5171 34.939 53.26 35.2942 52.9236 35.5839C52.5964 35.8736 52.2086 36.0652 51.76 36.1587L54.1993 40H53.0918L50.7506 36.3269H47.8065V40H46.8251ZM47.8065 35.4577H51.059C51.4515 35.4577 51.7927 35.3503 52.0824 35.1353C52.3721 34.9203 52.5964 34.6399 52.7553 34.2941C52.9142 33.939 52.9937 33.5651 52.9937 33.1726C52.9937 32.7707 52.9002 32.4015 52.7133 32.065C52.5357 31.7192 52.2927 31.4435 51.9843 31.2379C51.6852 31.0229 51.3487 30.9154 50.9749 30.9154H47.8065V35.4577ZM62.9519 39.1308V40H56.2647V30.0462H62.8258V30.9154H57.246V34.5044H62.1108V35.3316H57.246V39.1308H62.9519ZM70.8514 31.9108C70.7113 31.7519 70.5477 31.6117 70.3608 31.4902C70.1738 31.3594 69.9635 31.2472 69.7299 31.1538C69.4962 31.0603 69.2439 30.9855 68.9728 30.9295C68.7111 30.8734 68.4308 30.8453 68.1317 30.8453C67.2625 30.8453 66.6223 31.0136 66.211 31.35C65.8091 31.6772 65.6082 32.1258 65.6082 32.6959C65.6082 33.0885 65.7016 33.3969 65.8886 33.6212C66.0848 33.8455 66.3886 34.0278 66.7998 34.168C67.2111 34.3081 67.7345 34.453 68.37 34.6026C69.0803 34.7521 69.6925 34.9297 70.2066 35.1353C70.7206 35.3409 71.1178 35.6213 71.3982 35.9765C71.6786 36.3223 71.8188 36.7943 71.8188 37.3924C71.8188 37.8504 71.73 38.2476 71.5524 38.5841C71.3748 38.9205 71.1272 39.2009 70.8094 39.4252C70.4916 39.6495 70.1131 39.8178 69.6738 39.9299C69.2345 40.0327 68.7532 40.0841 68.2298 40.0841C67.7158 40.0841 67.2204 40.0327 66.7438 39.9299C66.2764 39.8178 65.8325 39.6589 65.4119 39.4533C64.9913 39.2383 64.5988 38.9673 64.2343 38.6401L64.725 37.841C64.9025 38.028 65.1128 38.2055 65.3558 38.3738C65.6082 38.5327 65.8839 38.6775 66.183 38.8084C66.4914 38.9392 66.8185 39.042 67.1643 39.1168C67.5195 39.1822 67.884 39.2149 68.2579 39.2149C69.0523 39.2149 69.6691 39.0701 70.1084 38.7803C70.557 38.4906 70.7813 38.0607 70.7813 37.4906C70.7813 37.0793 70.6692 36.7522 70.4449 36.5092C70.2206 36.2568 69.8841 36.0512 69.4355 35.8923C68.9869 35.7335 68.4354 35.5792 67.7812 35.4297C67.0896 35.2708 66.5054 35.0932 66.0288 34.897C65.5521 34.7007 65.1923 34.4437 64.9493 34.1259C64.7156 33.7988 64.5988 33.3688 64.5988 32.8361C64.5988 32.2193 64.7483 31.7005 65.0474 31.28C65.3558 30.85 65.7764 30.5276 66.3092 30.3126C66.8419 30.0883 67.4541 29.9761 68.1457 29.9761C68.585 29.9761 68.9915 30.0229 69.3654 30.1163C69.7486 30.2005 70.0991 30.3266 70.4168 30.4949C70.744 30.6631 71.0477 30.8734 71.3281 31.1257L70.8514 31.9108ZM80.5167 39.1308V40H73.8295V30.0462H80.3906V30.9154H74.8108V34.5044H79.6756V35.3316H74.8108V39.1308H80.5167ZM85.7372 30.0462H86.5644L90.7001 40H89.6627L88.3729 36.8877H83.9007L82.6249 40H81.5735L85.7372 30.0462ZM88.1486 36.1167L86.1438 31.1958L84.111 36.1167H88.1486ZM92.4074 40V30.0462H96.6132C97.0432 30.0462 97.4357 30.135 97.7909 30.3126C98.146 30.4902 98.4544 30.7332 98.7161 31.0416C98.9872 31.3407 99.1928 31.6772 99.333 32.051C99.4825 32.4155 99.5573 32.7894 99.5573 33.1726C99.5573 33.6492 99.4638 34.0979 99.2769 34.5184C99.0993 34.939 98.8423 35.2942 98.5058 35.5839C98.1787 35.8736 97.7909 36.0652 97.3422 36.1587L99.7816 40H98.6741L96.3328 36.3269H93.3888V40H92.4074ZM93.3888 35.4577H96.6413C97.0338 35.4577 97.3749 35.3503 97.6647 35.1353C97.9544 34.9203 98.1787 34.6399 98.3376 34.2941C98.4965 33.939 98.5759 33.5651 98.5759 33.1726C98.5759 32.7707 98.4825 32.4015 98.2956 32.065C98.118 31.7192 97.875 31.4435 97.5665 31.2379C97.2675 31.0229 96.931 30.9154 96.5571 30.9154H93.3888V35.4577ZM101.188 34.953C101.188 34.3455 101.291 33.752 101.496 33.1726C101.711 32.5838 102.02 32.051 102.422 31.5744C102.824 31.0884 103.319 30.7052 103.908 30.4248C104.497 30.135 105.165 29.9902 105.913 29.9902C106.8 29.9902 107.558 30.1958 108.184 30.607C108.819 31.0089 109.287 31.5276 109.586 32.1632L108.815 32.6398C108.6 32.2006 108.329 31.8547 108.001 31.6024C107.674 31.3407 107.324 31.1538 106.95 31.0416C106.586 30.9295 106.221 30.8734 105.857 30.8734C105.258 30.8734 104.73 30.9949 104.272 31.2379C103.814 31.4715 103.426 31.7893 103.109 32.1912C102.8 32.5838 102.567 33.0277 102.408 33.5231C102.249 34.0091 102.169 34.5044 102.169 35.0091C102.169 35.5605 102.263 36.0886 102.45 36.5933C102.637 37.098 102.898 37.5466 103.235 37.9392C103.571 38.3224 103.964 38.6308 104.413 38.8645C104.87 39.0888 105.366 39.2009 105.899 39.2009C106.272 39.2009 106.656 39.1355 107.048 39.0047C107.441 38.8738 107.805 38.6729 108.142 38.4018C108.487 38.1308 108.763 37.7803 108.969 37.3504L109.782 37.7709C109.576 38.2663 109.259 38.6869 108.829 39.0327C108.399 39.3785 107.917 39.6402 107.385 39.8178C106.861 39.9954 106.347 40.0841 105.842 40.0841C105.16 40.0841 104.534 39.9393 103.964 39.6495C103.394 39.3505 102.898 38.9579 102.478 38.4719C102.067 37.9766 101.749 37.4251 101.525 36.8176C101.3 36.2008 101.188 35.5792 101.188 34.953ZM119.589 30.0462V40H118.622V35.3456H112.72V40H111.738V30.0462H112.72V34.4764H118.622V30.0462H119.589Z" fill="#00DEB2"/>
</svg>
